<svg width="130" height="84" viewBox="0 0 130 84" fill="none" xmlns="http://www.w3.org/2000/svg">
<g clip-path="url(#clip0_209_117)">
<mask id="mask0_209_117" style="mask-type:luminance" maskUnits="userSpaceOnUse" x="0" y="-9" width="130" height="104">
<path d="M0 -8.43849H130V94.3562H0V-8.43849Z" fill="white"/>
</mask>
<g mask="url(#mask0_209_117)">
<path d="M78.1994 65.7613C79.7246 65.0022 81.2579 64.2579 82.7736 63.4814C88.3514 60.6237 93.7462 57.4819 98.7344 53.7189C101.914 51.3202 104.889 48.7098 107.367 45.6084C108.977 43.5941 110.333 41.4423 111.073 38.9705C111.516 37.488 111.696 35.9842 111.379 34.4537C110.924 32.2613 109.56 30.8096 107.465 29.9501C105.909 29.3116 104.269 29.0483 102.602 28.9043C100.875 28.755 99.1452 28.8194 97.3885 28.8924C97.5608 28.7273 97.7703 28.7031 97.9579 28.6466C100.946 27.7482 103.988 27.0994 107.113 26.8845C109.646 26.7104 112.169 26.7618 114.622 27.5142C115.904 27.9076 117.088 28.4758 118.019 29.4546C119.095 30.5863 119.463 31.9469 119.366 33.4467C119.226 35.6082 118.338 37.5311 117.258 39.3742C115.454 42.4522 113.183 45.1898 110.642 47.721C105.707 52.6374 99.9534 56.4644 93.7169 59.6433C88.8417 62.1284 83.7651 64.1469 78.5224 65.7774C78.4425 65.8021 78.3589 65.8153 78.2769 65.834C78.199 65.862 78.1849 65.8261 78.1994 65.7613Z" fill="#FF4040"/>
<path d="M20.8499 52.5311C20.8532 53.8077 20.857 55.0843 20.8592 56.3609C20.8594 56.5122 20.8714 56.6662 20.801 56.8093C19.47 58.0641 18.2943 59.4476 17.2293 60.9181C15.9371 62.7025 14.8653 64.5973 14.2908 66.7246C13.8935 68.1949 13.7585 69.678 14.1145 71.177C14.6312 73.3521 16.0696 74.7291 18.1526 75.5399C19.7407 76.158 21.4102 76.4036 23.1033 76.5353C24.7589 76.6643 26.4148 76.5898 28.1007 76.5152C28.0227 76.6499 27.9053 76.6411 27.815 76.6688C25.1471 77.4858 22.4323 78.096 19.6499 78.4112C16.719 78.7434 13.8082 78.7409 10.9434 77.9416C10.2796 77.7564 9.64604 77.4966 9.04142 77.1713C6.86716 76.0016 5.89703 74.2053 6.08735 71.8132C6.23446 69.9641 6.94119 68.2844 7.82708 66.674C9.58232 63.4834 11.8809 60.6782 14.436 58.0626C16.3205 56.1336 18.3593 54.3681 20.5161 52.7303C20.6191 52.6522 20.7047 52.544 20.8499 52.5311Z" fill="#FF4040"/>
<path d="M35.3938 45.9567C35.0325 45.6892 34.9046 45.2661 34.6671 44.9168C34.5658 44.7678 34.3664 44.6373 34.4532 44.4069C35.6763 43.8798 36.8955 43.3442 38.1233 42.8277C41.0271 41.6061 43.9933 40.5453 47.0062 39.6059C47.1193 39.5707 47.2286 39.5051 47.3617 39.56C47.2996 39.6939 47.1564 39.7108 47.045 39.7643C43.147 41.6344 39.3112 43.6152 35.5994 45.8165C35.5281 45.8588 35.4622 45.9097 35.3938 45.9567Z" fill="#FF4040"/>
<path d="M78.1994 65.7614C78.2252 65.7857 78.2511 65.8098 78.2769 65.8341C78.1751 65.935 78.0387 65.9482 77.9063 65.9716C77.8339 65.9957 77.8192 65.9702 77.8478 65.9076C77.965 65.8588 78.0822 65.8101 78.1994 65.7614Z" fill="#FF4040"/>
<path d="M77.8478 65.9075C77.8674 65.9288 77.8869 65.9503 77.9063 65.9715C77.8369 66.0491 77.7498 66.0756 77.6788 65.9945C77.6645 65.9781 77.7724 65.9094 77.8478 65.9075Z" fill="#FF4040"/>
<path d="M30.0872 50.6666L29.0072 51.3867C28.832 51.1054 28.9639 50.7976 28.9284 50.5039C28.9116 50.3658 28.92 50.225 28.9171 50.0853C29.0283 49.8891 29.1699 49.7376 29.4284 49.7575C29.797 49.959 29.9674 50.2956 30.0872 50.6666Z" fill="#FF4040"/>
<path d="M29.4284 49.7576C29.2579 49.8668 29.0875 49.9761 28.917 50.0853C28.793 49.604 28.9025 49.1185 28.85 48.5538C29.1704 48.876 29.3348 49.1954 29.5232 49.5005C29.6123 49.6448 29.4748 49.678 29.4284 49.7576Z" fill="#FF4040"/>
</g>
<mask id="mask1_209_117" style="mask-type:luminance" maskUnits="userSpaceOnUse" x="0" y="-9" width="130" height="104">
<path d="M0 -8.43849H130V94.3562H0V-8.43849Z" fill="white"/>
</mask>
<g mask="url(#mask1_209_117)">
<path d="M28.8476 64.5734C28.8176 64.963 28.8404 64.8061 28.846 65.0961C28.8649 66.0702 28.8459 67.045 28.8581 68.0193C28.8614 68.2694 28.7786 68.4334 28.5657 68.5755C26.2806 70.0997 24 71.6301 21.7192 73.1604C21.5012 73.3067 21.2851 73.4563 21.0769 73.6152C20.9331 73.7248 20.8635 73.7141 20.8605 73.5264C20.8593 73.4442 20.8599 73.3621 20.8598 73.2799C20.8598 71.0256 20.8577 68.7715 20.8631 66.5173C20.8636 66.3005 20.862 66.3924 20.862 66.1535C20.8879 65.8717 20.7443 65.6072 20.7438 65.3024C20.7402 63.2415 20.7416 61.1806 20.7424 59.1195C20.7424 58.9095 20.7241 58.6953 20.8564 58.5082C20.829 57.9421 20.9312 57.3723 20.801 56.8094C20.727 56.7054 20.7402 56.5863 20.7407 56.4704C20.7453 55.326 20.7405 54.1815 20.7428 53.0371C20.7432 52.8614 20.7407 52.6851 20.8499 52.531C20.8532 52.1453 20.8586 51.7595 20.8585 51.3737C20.8585 51.2635 20.8969 51.1269 20.7178 51.0997C20.7629 50.3693 20.7407 49.638 20.7474 48.907C20.7487 48.7649 20.7676 48.6287 20.8541 48.5087C20.856 44.8813 20.8579 41.2538 20.8598 37.6264C20.8601 37.1476 20.8601 37.1474 21.3445 37.1474C24.0444 37.1473 26.7443 37.1493 29.4441 37.1444C29.7345 37.1439 29.9289 37.2185 30.0912 37.4845C31.4617 39.7289 32.8501 41.963 34.2329 44.2005C34.2875 44.2888 34.3152 44.4027 34.4531 44.4068C34.7474 44.9344 35.0977 45.43 35.3937 45.9566C35.5096 46.3317 35.6867 46.6724 35.984 46.9457C36.5152 47.6882 36.9607 48.4816 37.4425 49.2534C38.6642 51.2103 39.8533 53.1861 41.074 55.1436C41.0928 55.1737 41.1117 55.2038 41.1308 55.2336C41.3479 55.5726 41.3517 55.571 41.5599 55.2341C42.9471 52.9904 44.3221 50.7398 45.6987 48.4901C46.3156 47.4819 46.9483 46.4823 47.5283 45.4531C47.963 45.1561 48.1358 44.6745 48.3934 44.2602C49.6324 42.2677 50.9185 40.2978 52.0413 38.2446C52.5442 37.3248 53.1295 37.0934 54.1327 37.1238C56.5386 37.1965 58.9485 37.1538 61.3565 37.1399C61.693 37.1379 61.7835 37.2301 61.7795 37.5525C61.762 38.9721 61.7754 40.3921 61.7684 41.8119C61.7672 42.0311 61.7938 42.1878 62.0725 42.1554C61.8961 42.4108 61.8875 42.6971 61.8878 42.9926C61.8915 47.0171 61.8907 51.0416 61.8893 55.0662C61.8892 55.3251 61.7737 55.5082 61.7666 55.8427C61.7715 56.3209 61.7715 56.095 61.7715 56.2807C61.7721 60.1442 61.772 64.0078 61.772 67.8714C61.772 68.3617 61.7718 68.3619 61.2624 68.3619C58.7917 68.3618 56.3209 68.3616 53.8504 68.3614C53.757 68.2236 53.7797 68.0675 53.7795 67.9163C53.778 66.6015 53.7762 65.2865 53.7791 63.9717C53.7902 58.9123 53.7296 53.8531 53.7432 48.7975C53.562 48.7582 53.5672 48.9273 53.5192 49.0068C52.5463 50.6166 51.5428 52.2089 50.5554 53.8104C49.6983 55.2003 48.8551 56.5982 47.9874 57.982C47.8992 58.1229 47.7457 58.1425 47.6307 58.4368C47.3259 58.8674 47.492 58.5943 47.3879 58.7654C46.3051 60.5462 45.2151 62.323 44.1301 64.1025C43.9701 64.3648 43.77 64.4981 43.4301 64.4938C42.0402 64.4762 40.6497 64.4705 39.26 64.496C38.8322 64.5038 38.5963 64.3439 38.4044 63.9981C38.1192 63.4844 37.796 62.9902 37.4852 62.4901C37.456 62.443 37.3998 62.4116 37.356 62.3729C36.944 61.8074 36.6032 61.1993 36.2393 60.6055C34.323 57.4789 32.3955 54.3587 30.4909 51.2254C30.3733 51.032 30.2453 50.8489 30.0672 50.7027C29.8875 50.3618 29.6677 50.0465 29.4131 49.7536C29.4585 49.3701 29.1525 49.1453 28.9785 48.8528C28.9658 49.3063 28.8924 49.7547 29.0119 50.2C29.0593 50.6112 29.0201 51.0241 29.05 51.4356C28.9983 51.6892 28.9696 51.9435 28.9698 52.2029C28.972 56.0924 29.4984 60.016 28.9695 63.8715C28.9326 64.1395 28.858 64.2948 28.8476 64.5734Z" fill="white"/>
<path d="M94.6906 55.1158C93.336 56.1359 91.8719 56.9983 90.4234 57.8812C89.3005 58.5656 88.1438 59.1973 87.0131 59.87C86.7143 60.0477 86.6951 59.924 86.6958 59.6801C86.6991 58.5887 86.6869 57.4972 86.7035 56.4059C86.7084 56.0808 86.6262 55.9529 86.2609 55.9536C81.2745 55.964 76.288 55.9636 71.3015 55.9541C70.9491 55.9534 70.8481 56.06 70.849 56.3967C70.8593 60.2459 70.8513 64.0952 70.8618 67.9445C70.8629 68.3456 70.702 68.5729 70.359 68.7925C69.0614 69.6229 67.7873 70.4882 66.5085 71.3462C65.6067 71.9512 64.7178 72.5748 63.8093 73.17C63.5318 73.3519 63.2089 73.4743 62.8646 73.2876C62.9325 73.1533 62.8977 73.01 62.8977 72.8715C62.8997 67.2121 62.8995 61.5527 62.8993 55.8934C62.7903 55.5391 62.8148 55.1747 62.8147 54.8126C62.814 50.8014 62.8149 46.7903 62.8127 42.7791C62.8125 42.4742 62.8163 42.1715 62.8993 41.8749C62.8997 40.4194 62.8986 38.9637 62.8999 37.5081C62.9001 37.1309 62.9182 37.1136 63.3111 37.1135C65.696 37.1127 68.081 37.1127 70.4659 37.1141C70.6068 37.1141 70.7617 37.0755 70.8685 37.2127C70.9102 37.3387 70.8898 37.4687 70.8899 37.5966C70.8912 39.6003 70.8901 41.6038 70.8927 43.6076C70.8929 43.7333 70.8553 43.8655 70.9304 43.9853L70.9265 43.9792C71.0758 44.1483 71.0467 44.3545 71.0471 44.5516C71.0498 46.0193 71.0474 47.4868 71.0489 48.9545C71.0496 49.4879 71.0631 49.5017 71.6228 49.5018C76.4178 49.5028 81.2128 49.5029 86.0079 49.5016C86.5573 49.5015 86.5761 49.4825 86.5764 48.9446C86.5775 45.2461 86.5766 41.5477 86.5772 37.8493C86.5773 37.0632 86.6096 37.0313 87.4085 37.0311C89.6002 37.0301 91.7918 37.0306 93.9835 37.0308C94.0441 37.0308 94.1046 37.0305 94.1651 37.0316C94.7194 37.042 94.7987 37.1169 94.8099 37.6412C94.8121 37.7468 94.8108 37.8526 94.8108 37.9582C94.8109 42.6194 94.8106 47.2805 94.812 51.9418C94.812 52.2234 94.6933 52.5542 94.6941 52.8133C94.6716 53.593 94.7709 54.3371 94.6906 55.1158Z" fill="white"/>
<path d="M126.523 61.3862C125.782 62.2631 125.09 63.0821 124.398 63.9012C123.581 64.8672 122.764 65.8327 121.948 66.7992C121.567 67.2507 121.183 67.7008 120.81 68.1584C120.654 68.3492 120.455 68.3648 120.228 68.3647C113.63 68.3613 107.032 68.3619 100.433 68.3619C99.0289 68.3619 97.6246 68.3555 96.2202 68.3674C95.9407 68.3697 95.8455 68.3016 95.8468 68.0149C95.8579 65.4206 95.8568 62.8261 95.8481 60.2318C95.8472 59.9586 95.9542 59.7951 96.1908 59.6714C98.051 58.6982 99.8446 57.6185 101.598 56.4763C102.248 56.053 102.886 55.6112 103.53 55.1789C103.607 55.1268 103.69 55.0428 103.787 55.088C103.893 55.1379 103.845 55.256 103.845 55.3435C103.847 57.1515 103.847 58.9593 103.847 60.7672C103.847 61.3861 103.847 61.3862 104.467 61.3862H126.042H126.523Z" fill="white"/>
<path d="M95.9046 52.6575C95.9454 52.4794 95.8585 52.5681 95.8576 52.2282C95.8448 47.3674 95.8522 42.5067 95.8422 37.646C95.8414 37.2885 95.965 37.0701 96.2681 36.866C98.6896 35.2346 101.099 33.5866 103.513 31.9441C103.599 31.8854 103.692 31.7725 103.795 31.8338C103.911 31.9027 103.849 32.0494 103.849 32.1604C103.852 37.162 103.85 42.1637 103.857 47.1653C103.857 47.3068 103.746 47.5068 103.99 47.5858C103.423 48.1443 102.875 48.7221 102.286 49.2574C100.979 50.4454 99.6205 51.5762 98.201 52.6369C97.5349 53.1346 96.8618 53.6232 96.1917 54.1157C96.1069 54.1779 96.0187 54.2758 95.9083 54.2227C95.8076 54.1744 95.8575 54.0538 95.8553 53.9653C95.8495 53.7312 95.8321 53.4946 95.8583 53.2631C95.8967 52.924 95.912 52.8272 95.9046 52.6575Z" fill="white"/>
<path d="M94.6906 64.4593C94.6906 65.6332 94.6829 66.8071 94.6964 67.9807C94.6995 68.2571 94.6427 68.3704 94.3226 68.3688C91.9015 68.3561 89.4803 68.3574 87.059 68.3677C86.7709 68.3689 86.6876 68.2883 86.691 68.0101C86.7055 66.8247 86.702 65.639 86.6929 64.4534C86.6912 64.2254 86.7539 64.0921 86.9854 63.9975C88.0637 63.5564 89.1449 63.1194 90.2048 62.639C91.4975 62.0532 92.7716 61.429 94.0504 60.8147C94.694 60.5056 94.6906 60.499 94.6906 61.2195V64.4593Z" fill="white"/>
</g>
<mask id="mask2_209_117" style="mask-type:luminance" maskUnits="userSpaceOnUse" x="0" y="-9" width="130" height="104">
<path d="M0 -8.43849H130V94.3562H0V-8.43849Z" fill="white"/>
</mask>
<g mask="url(#mask2_209_117)">
<path d="M62.9276 41.871C62.927 46.5429 62.9265 51.2148 62.9259 55.8866C62.9079 55.9218 62.8901 55.9218 62.8722 55.8865C62.8518 55.7489 62.7832 55.6697 62.6274 55.7003C62.4152 55.7421 62.2031 55.7852 61.9909 55.8278C61.8744 55.8227 61.7708 55.8043 61.7747 55.6553C61.7769 55.5733 61.772 55.4911 61.772 55.409C61.7719 51.1392 61.774 46.8695 61.7665 42.5997C61.766 42.3607 61.8044 42.1968 62.0723 42.1554C62.3534 42.1001 62.6712 42.1421 62.8705 41.8712C62.8894 41.8365 62.9085 41.8364 62.9276 41.871Z" fill="#383131"/>
<path d="M94.6933 52.7887C94.6923 48.5501 94.6916 44.3116 94.6905 40.0731C94.6903 39.2042 94.6808 38.3353 94.6929 37.4666C94.6962 37.2251 94.6285 37.1377 94.3682 37.1385C91.9222 37.1462 89.4761 37.1489 87.0302 37.1361C86.6989 37.1344 86.6943 37.2912 86.6945 37.5261C86.6982 41.4008 86.6971 45.2754 86.697 49.1501C86.697 49.6228 86.6968 49.6232 86.2052 49.6232C81.2647 49.6233 76.3242 49.6233 71.3838 49.6231C70.9193 49.6231 70.9183 49.6225 70.919 49.157C70.9211 47.4312 70.9239 45.7052 70.9264 43.9792C71.9069 44.4105 72.9167 44.2397 73.9193 44.1005C74.6697 43.9963 75.43 43.9274 76.136 43.6163C76.4697 43.4694 76.7711 43.2803 77.0578 43.0641C77.403 42.8038 77.55 42.4857 77.5599 42.038C77.5946 40.4735 77.0542 39.0439 76.5365 37.6067C76.1024 36.4014 75.6467 35.2043 75.5206 33.9186C75.4806 33.5112 75.5954 33.3829 76.0178 33.2616C77.0856 32.9547 78.1782 32.7751 79.2736 32.6021C79.6235 32.5469 79.9719 32.5562 80.3215 32.5891C80.381 32.5947 80.4535 32.6383 80.4961 32.6177C81.0781 32.3375 81.7134 32.1204 82.216 31.7394C82.5989 31.4492 82.4391 30.9023 82.3709 30.4676C82.1697 29.1837 81.2887 28.3835 80.219 27.7426C79.3479 27.2207 78.3971 26.8603 77.3973 26.6684C75.8565 26.3723 74.7682 25.4736 73.8945 24.2878C72.8762 22.9056 72.3838 21.3569 72.5354 19.6523C72.6096 18.8183 72.6091 18.8533 73.3545 18.9593C73.9929 19.05 74.3863 19.3574 74.5649 19.9568C74.7386 20.5403 74.8414 21.1473 75.1603 21.6847C75.6865 22.5716 76.4113 23.2252 77.4385 23.5323C79.1562 24.0458 81.1853 22.6375 81.2525 20.897C81.2844 20.0731 81.1091 19.3278 80.4613 18.7562C80.1138 18.4496 79.7161 18.1975 79.3537 17.9061C78.9053 17.5455 78.4995 17.1429 78.1822 16.6651C77.7515 16.0166 77.9373 15.5572 78.7017 15.3358C79.3297 15.1539 79.9226 15.2665 80.4235 15.6265C82.1499 16.8665 83.3719 18.4058 83.5196 20.5928C83.5783 21.4613 83.5691 22.3271 83.5733 23.194C83.5792 24.4133 83.7258 25.5958 84.3017 26.7064C84.8834 27.8281 85.419 28.9729 86.3536 29.8792C87.1408 30.6425 88.0729 30.9245 89.1658 30.7018C89.8501 30.5623 90.5374 30.4353 91.2198 30.2875C91.3822 30.2524 91.5174 30.2477 91.5974 30.3938C91.8132 30.7883 92.18 30.7855 92.5446 30.7192C94.3857 30.3852 96.2448 30.2162 98.1108 30.0834C99.2848 29.9999 100.459 29.9939 101.629 30.0468C103.343 30.1242 105.045 30.3303 106.665 30.9354C108.001 31.4347 109.151 32.1605 109.762 33.4822C110.23 34.4952 110.377 35.5545 110.269 36.6698C110.002 39.4328 108.671 41.749 107.092 43.9662C106.17 45.2614 105.089 46.4321 103.989 47.5859C103.782 47.6407 103.776 47.4828 103.753 47.363C103.721 47.2012 103.736 47.0352 103.736 46.8708C103.736 42.0912 103.736 37.3117 103.733 32.5321C103.733 32.372 103.811 32.1468 103.664 32.0683C103.513 31.9869 103.368 32.1817 103.235 32.272C100.97 33.8036 98.7185 35.3533 96.4473 36.8756C96.0859 37.1179 95.9567 37.3997 95.9576 37.8164C95.9682 42.502 95.9644 47.1877 95.9643 51.8733C95.9643 51.9907 95.9662 52.1081 95.963 52.2255C95.9506 52.6836 95.9167 52.7105 95.4208 52.6597C95.1967 52.6955 94.9308 52.5241 94.7522 52.7863C94.734 52.8207 94.7145 52.8232 94.6933 52.7887Z" fill="#383131"/>
<path d="M109.926 50.0488C110.574 49.4367 111.246 48.8461 111.867 48.2089C114.559 45.446 116.98 42.4847 118.815 39.1069C119.654 37.5629 120.282 35.9444 120.538 34.2071C120.804 32.3986 120.508 30.7015 119.394 29.1913C118.521 28.0076 117.298 27.2696 115.938 26.7156C114.589 26.1658 113.164 25.9248 111.726 25.7358C111.62 25.722 111.451 25.7696 111.537 25.5551C111.851 24.7755 111.822 23.9172 112.127 23.1344C112.23 22.8728 112.274 22.5908 112.437 22.3502C112.475 22.2951 112.497 22.2177 112.494 22.1518C112.448 21.0253 112.836 19.9598 112.981 18.8602C113.143 17.6268 113.338 16.3934 112.923 15.1713C112.588 14.1845 111.844 13.6879 110.81 13.5416C109.225 13.3173 107.872 13.9015 106.574 14.674C105.583 15.2632 104.765 16.0355 104.061 16.9283C103.662 17.4334 103.17 17.8217 102.506 17.9567C102.378 17.9828 102.224 18.0357 102.132 17.9239C102.049 17.8245 102.136 17.6946 102.181 17.5903C102.578 16.6724 103.178 15.8757 103.811 15.1049C104.678 14.0483 105.633 13.066 106.645 12.139C107.818 11.0655 109.043 10.0703 110.547 9.4332C112.676 8.53116 114.816 8.54335 116.975 9.27473C117.773 9.54509 118.555 9.86066 119.34 10.1672C119.814 10.3523 120.308 10.4574 120.802 10.5698C121.051 10.6265 121.223 10.5285 121.344 10.3208C121.48 10.0855 121.622 9.8536 121.752 9.61543C121.857 9.42486 121.998 9.35654 122.224 9.39341C123.128 9.54078 124.033 9.6788 124.939 9.81196C125.232 9.85516 125.363 9.96484 125.36 10.2894C125.347 11.8841 125.329 13.4765 124.917 15.0345C124.834 15.3517 124.712 15.6594 124.606 15.9711C124.539 16.168 124.408 16.2499 124.189 16.2087C123.396 16.0593 122.604 15.9052 121.807 15.7756C121.518 15.7285 121.4 15.5837 121.361 15.3211C121.325 15.0786 121.281 14.834 121.206 14.601C120.822 13.4165 120.236 13.3098 119.126 13.4291C117.95 13.5556 117.392 14.3514 116.976 15.2939C116.515 16.3357 116.291 17.4377 116.133 18.5534C115.942 19.9056 115.958 21.2667 115.987 22.6267C116 23.2016 116.123 23.7634 116.263 24.3217C116.338 24.6229 116.522 24.7678 116.835 24.7337C117.801 24.6284 118.778 24.7045 119.73 24.3665C120.753 24.0032 121.322 24.3443 121.653 25.362C121.938 26.2368 122.046 27.1453 122.157 28.051C122.306 29.2701 122.443 30.4906 122.576 31.7115C122.691 32.7584 122.778 33.8084 122.904 34.8539C123.031 35.9002 123.169 36.9436 123.188 37.9995C123.218 39.6453 123.161 41.2809 122.664 42.8717C122.018 44.9415 120.76 46.5313 118.776 47.5664C117.301 48.3361 115.705 48.7469 114.094 49.1271C112.816 49.4288 111.525 49.685 110.274 50.0872C110.185 50.1158 110.089 50.1259 109.997 50.1447C109.973 50.1126 109.95 50.0808 109.926 50.0488Z" fill="#383131"/>
<path d="M20.854 48.5088C20.8559 49.2477 20.8552 49.9866 20.8619 50.7256C20.8632 50.8732 20.8455 51.0038 20.7178 51.0998C19.9801 51.5711 19.3152 52.1341 18.6299 52.6705C16.65 54.2202 14.7958 55.907 13.0758 57.7204C10.5075 60.4281 8.184 63.3168 6.46223 66.6211C6.40522 66.7305 6.38716 66.9161 6.24752 66.9182C6.0901 66.9206 6.04093 66.7339 5.98402 66.6147C5.64252 65.899 5.47215 65.1282 5.24401 64.3764C4.61651 62.3091 4.14019 60.2077 3.80427 58.0782C3.67673 57.2698 3.62029 56.4511 3.53973 55.6365C3.47743 55.0065 3.43507 54.3954 3.54427 53.7691C3.58058 53.5613 3.66056 53.4418 3.82734 53.3189C5.54448 52.0548 7.50724 51.4004 9.60738 51.0303C12.2786 50.5595 14.9226 49.9601 17.5553 49.3163C18.655 49.0475 19.7545 48.778 20.854 48.5088Z" fill="#383131"/>
<path d="M30.0871 50.6666C30.3504 50.7005 30.415 50.9325 30.5205 51.1039C32.7262 54.6878 34.9259 58.2751 37.1222 61.8645C37.219 62.0225 37.3445 62.1749 37.356 62.3729C36.6462 62.5203 35.9943 62.8349 35.3012 63.0357C33.3613 63.5979 31.4046 64.0917 29.4257 64.5047C29.3552 64.5195 29.2869 64.5446 29.2176 64.565C28.9363 64.6062 28.8471 64.4962 28.8477 64.2169C28.856 60.1161 28.8541 56.0152 28.8508 51.9144C28.8506 51.719 28.8869 51.5436 29.0073 51.3867C29.3087 51.0642 29.6409 50.7849 30.0871 50.6666Z" fill="#383131"/>
<path d="M95.2135 8.52445C95.1548 8.9531 95.1348 9.39092 95.0291 9.80838C94.8188 10.6386 94.9201 11.4655 95.0088 12.2895C95.173 13.8127 95.4135 15.3267 95.7089 16.8315C96.1417 19.0366 96.516 21.2534 97.0817 23.4321C97.3382 24.4201 97.8336 24.7121 98.8628 24.5655C99.3033 24.5028 99.753 24.5031 100.198 24.4647C100.508 24.438 100.543 24.5733 100.47 24.8249C100.375 25.1543 100.239 25.4652 100.085 25.771C99.9734 25.9925 99.8434 26.229 99.8665 26.4705C99.9027 26.8508 99.7001 26.9331 99.3792 27.0143C97.9992 27.3632 96.6389 27.7793 95.3075 28.2749C94.958 28.405 94.7723 28.3833 94.6248 28.0196C94.3928 27.4476 93.9357 27.0038 93.6142 26.4797C93.4469 26.2073 93.4745 26.0672 93.8052 25.9793C94.2358 25.8648 94.6565 25.7154 95.0839 25.589C95.5991 25.4366 95.8428 25.1362 95.8475 24.6084C95.8575 23.4716 95.5459 22.3849 95.2697 21.2959C94.5694 18.5345 93.8872 15.768 93.0297 13.0468C92.6919 11.9746 92.2082 10.9677 91.5172 10.0619C91.1337 9.5592 91.0158 8.97273 90.9905 8.37194C90.9565 7.56399 90.9711 6.75521 91.0401 5.94735C91.0576 5.74265 91.1658 5.65984 91.3275 5.59023C91.9078 5.34088 92.5206 5.21001 93.1484 5.15984C93.9765 5.09381 93.9801 5.10344 94.2688 5.88554C94.501 6.51475 94.9071 7.07161 95.0784 7.72558C95.1469 7.98695 95.2104 8.24905 95.2135 8.52445Z" fill="#383131"/>
<path d="M47.5283 45.4531C47.6662 45.5979 47.5093 45.6862 47.4509 45.7819C45.4828 49.0069 43.5098 52.2291 41.543 55.4551C41.4065 55.6789 41.3316 55.7419 41.1654 55.4711C39.491 52.7443 37.8071 50.0229 36.1289 47.2981C36.0626 47.1907 35.97 47.0868 35.9839 46.9457C36.3781 46.7928 36.7161 46.5002 37.1993 46.5847C38.0968 46.7417 39.0076 46.675 39.911 46.6568C41.4688 46.6254 42.9994 46.3501 44.525 46.0663C45.5295 45.8793 46.5275 45.6587 47.5283 45.4531Z" fill="#383131"/>
<path d="M47.6306 58.4368C47.7687 58.1811 47.7687 58.1811 47.8204 58.0947C48.3299 57.2434 48.8557 56.4012 49.3764 55.5562C50.7773 53.2824 52.1772 51.008 53.5827 48.7369C53.6255 48.6678 53.6074 48.5029 53.7809 48.5609C53.8405 48.6719 53.8123 48.7915 53.8124 48.9069C53.8141 51.5926 53.8155 54.2784 53.8075 56.9642C53.8071 57.0782 53.9233 57.2576 53.6961 57.3154C52.8793 57.3878 52.089 57.6015 51.2862 57.7474C50.1274 57.9582 48.7854 58.2053 47.6306 58.4368Z" fill="#383131"/>
<path d="M20.8564 58.5082C20.8575 60.9374 20.8529 63.3666 20.8684 65.7957C20.87 66.0453 20.745 66.1104 20.5608 66.1732C19.6348 66.3229 18.7081 66.4687 17.7831 66.6235C17.1426 66.7307 16.4997 66.8317 15.8667 66.9722C15.5273 67.0475 15.5089 66.9272 15.5852 66.6754C15.886 65.6829 16.3009 64.7351 16.8105 63.8291C17.8739 61.9384 19.214 60.2397 20.6895 58.6375C20.7362 58.5867 20.8004 58.5509 20.8564 58.5082Z" fill="#383131"/>
</g>
</g>
<defs>
<clipPath id="clip0_209_117">
<rect width="130" height="84" fill="white"/>
</clipPath>
</defs>
</svg>
