<svg width="32" height="32" viewBox="0 0 32 32" fill="none" xmlns="http://www.w3.org/2000/svg">
<circle cx="16" cy="16" r="16" fill="#FF4040"/>
<g clip-path="url(#clip0_204_3260)">
<path d="M22.4658 18.8341L19.4658 17.5484C19.3376 17.4938 19.1952 17.4823 19.0599 17.5156C18.9247 17.5489 18.8039 17.6253 18.7158 17.7332L17.3872 19.3564C15.3021 18.3733 13.6241 16.6953 12.641 14.6103L14.2643 13.2817C14.3724 13.1938 14.4489 13.073 14.4823 12.9376C14.5156 12.8023 14.504 12.6598 14.4491 12.5317L13.1634 9.5317C13.1031 9.39359 12.9966 9.28084 12.8621 9.21287C12.7276 9.1449 12.5737 9.12598 12.4268 9.15938L9.64104 9.80223C9.49939 9.83494 9.373 9.9147 9.28252 10.0285C9.19203 10.1423 9.14279 10.2834 9.14282 10.4288C9.14282 17.2993 14.7116 22.8573 21.5714 22.8573C21.7168 22.8574 21.858 22.8082 21.9718 22.7177C22.0857 22.6272 22.1655 22.5008 22.1982 22.3591L22.841 19.5734C22.8742 19.4258 22.8549 19.2712 22.7864 19.1362C22.7179 19.0013 22.6045 18.8945 22.4658 18.8341Z" fill="white"/>
</g>
<defs>
<clipPath id="clip0_204_3260">
<rect width="13.7143" height="13.7143" fill="white" transform="translate(9.14282 9.14285)"/>
</clipPath>
</defs>
</svg>
