<svg width="32" height="32" viewBox="0 0 32 32" fill="none" xmlns="http://www.w3.org/2000/svg">
<circle cx="16" cy="16" r="16" fill="#00A12D"/>
<path d="M21.4676 10.6797C20.0647 9.27344 18.1964 8.5 16.2109 8.5C12.1127 8.5 8.77785 11.8348 8.77785 15.933C8.77785 17.2422 9.11937 18.5212 9.76892 19.6496L8.71423 23.5L12.6551 22.4654C13.7399 23.058 14.962 23.3694 16.2075 23.3694H16.2109C20.3058 23.3694 23.7142 20.0346 23.7142 15.9364C23.7142 13.9509 22.8705 12.0859 21.4676 10.6797ZM16.2109 22.1172C15.0993 22.1172 14.0111 21.8192 13.0636 21.2567L12.8392 21.1228L10.5022 21.7355L11.1249 19.4554L10.9776 19.221C10.3582 18.2366 10.0334 17.1016 10.0334 15.933C10.0334 12.5279 12.8058 9.75558 16.2142 9.75558C17.8649 9.75558 19.4151 10.3984 20.5803 11.567C21.7455 12.7355 22.462 14.2857 22.4587 15.9364C22.4587 19.3449 19.616 22.1172 16.2109 22.1172ZM19.5993 17.49C19.4151 17.3962 18.5011 16.9475 18.3303 16.8873C18.1595 16.8237 18.0357 16.7935 17.9118 16.981C17.7879 17.1685 17.433 17.5837 17.3225 17.7109C17.2153 17.8348 17.1049 17.8516 16.9207 17.7578C15.8292 17.2121 15.1127 16.7835 14.3928 15.548C14.202 15.2199 14.5837 15.2433 14.9386 14.5335C14.9988 14.4096 14.9687 14.3025 14.9218 14.2087C14.8749 14.115 14.5033 13.2009 14.3493 12.8292C14.1986 12.4676 14.0446 12.5179 13.9308 12.5112C13.8236 12.5045 13.6997 12.5045 13.5758 12.5045C13.452 12.5045 13.2511 12.5513 13.0803 12.7355C12.9095 12.923 12.4308 13.3717 12.4308 14.2857C12.4308 15.1998 13.097 16.0837 13.1874 16.2076C13.2812 16.3315 14.4966 18.2065 16.3616 19.0134C17.5401 19.5223 18.0022 19.5658 18.5915 19.4788C18.9497 19.4252 19.6897 19.0301 19.8437 18.5949C19.9977 18.1596 19.9977 17.7879 19.9508 17.7109C19.9073 17.6272 19.7834 17.5804 19.5993 17.49Z" fill="white"/>
</svg>
